<svg width="19" height="20" fill="none" xmlns="http://www.w3.org/2000/svg"><path fill-rule="evenodd" clip-rule="evenodd" d="M3.203 13.44c1.052.853 2.257 1.264 3.45 1.266.411 1.299 1.157 2.47 2.21 3.322 2.734 2.218 6.504 1.448 8.419-1.719 1.915-3.167 1.25-7.531-1.485-9.749-1.052-.853-2.257-1.264-3.451-1.266-.41-1.298-1.156-2.47-2.208-3.322C7.403-.246 3.633.524 1.718 3.69-.197 6.857.468 11.222 3.203 13.44Zm.99-1.639a3.95 3.95 0 0 0 2.1.886c-.074-1.514.275-3.068 1.085-4.408.81-1.34 1.951-2.25 3.206-2.687A4.874 4.874 0 0 0 9.147 3.61C7.193 2.026 4.5 2.576 3.133 4.838 1.765 7.1 2.24 10.218 4.193 11.8ZM14.807 8.2a3.95 3.95 0 0 0-2.1-.886c.074 1.514-.275 3.068-1.085 4.408-.81 1.34-1.952 2.25-3.207 2.687.31.77.794 1.46 1.438 1.982 1.953 1.584 4.646 1.034 6.014-1.228 1.368-2.262.893-5.38-1.06-6.963Z" fill="#02291C"/></svg>