<svg width="64" height="22" fill="none" xmlns="http://www.w3.org/2000/svg"><g clip-path="url(#a)" fill="#fff"><path d="M20.235 19.734c.636.092 1.18-.017 1.509-.082.193-.039.367-.085.516-.13a.41.41 0 0 0 .29-.417l-.104-1.509a.405.405 0 0 0-.469-.372h-.005c-.256.038-.385.058-.539.046-.172-.014-.404-.034-.587-.197-.263-.237-.244-.615-.24-.683V2.712a.526.526 0 0 0-.528-.527h-1.637a.526.526 0 0 0-.527.527V17.01c-.012.2-.06 1.317.743 2.069.543.506 1.212.603 1.578.655Z"/><path fill-rule="evenodd" clip-rule="evenodd" d="M13.524 19.592h1.586c.371 0 .626-.37.492-.717L9.36 2.698a.525.525 0 0 0-.492-.338H6.771a.527.527 0 0 0-.492.338L.036 18.875a.527.527 0 0 0 .492.717h1.535a.527.527 0 0 0 .492-.337l1.297-3.36a.088.088 0 0 1 .082-.055h7.72a.09.09 0 0 1 .082.056l1.296 3.359a.528.528 0 0 0 .492.337Zm-8.673-6.278L7.7 5.883a.087.087 0 0 1 .163 0l2.872 7.43a.088.088 0 0 1-.082.119H4.934a.087.087 0 0 1-.083-.12Z"/><path d="M35.963 8.674c.904-1.242 2.431-2.226 4.58-2.226 3 0 4.604 1.889 4.604 5.096v7.52a.526.526 0 0 1-.527.526h-1.637a.526.526 0 0 1-.527-.527v-7.311c0-1.657-.803-2.795-2.665-2.795-1.63 0-2.872 1.008-3.234 2.484v7.622a.526.526 0 0 1-.528.527h-1.637a.526.526 0 0 1-.527-.527v-7.311c0-1.657-.803-2.795-2.665-2.795-1.63 0-2.872 1.008-3.234 2.484v7.622a.526.526 0 0 1-.527.527h-1.637a.526.526 0 0 1-.527-.527V9.967c0-.596-.311-.854-.827-.854a2 2 0 0 0-.148.005.53.53 0 0 1-.566-.49l-.088-1.314a.53.53 0 0 1 .378-.54c.311-.097.685-.17 1.25-.17 1.45 0 2.355.7 2.615 1.863.776-1.139 2.122-2.019 4.062-2.019 1.942 0 3.314.803 4.012 2.226Z"/><path fill-rule="evenodd" clip-rule="evenodd" d="M62.215 17.515c.246 0 .51-.053.756-.123.28-.088.58.07.667.35l.281.932a.534.534 0 0 1-.246.614 4.469 4.469 0 0 1-2.055.527c-1.528 0-2.828-.913-3.021-2.67-.93 1.757-2.67 2.67-4.883 2.67-4.005 0-6.235-3.109-6.235-6.674 0-3.566 2.178-6.78 6.2-6.78 2.196 0 3.83.913 4.655 2.477V7.204c0-.299.228-.527.527-.527h1.44c.298 0 .527.228.527.527v8.782c0 1.054.65 1.529 1.387 1.529Zm-12.207-4.427c0 2.617 1.651 4.444 4.11 4.444 2.424 0 4.163-1.81 4.163-4.444s-1.704-4.444-4.198-4.444c-2.67 0-4.075 2.038-4.075 4.444Z"/></g><defs><clipPath id="a"><path fill="#fff" d="M0 0h64v22H0z"/></clipPath></defs></svg>